<svg version="1.2" baseProfile="tiny-ps" xmlns="http://www.w3.org/2000/svg" viewBox="0 0 1600 741" width="1600" height="741">
	<title>HKEX_logo_2016-svg</title>
	<style>
		tspan { white-space:pre }
		.shp0 { fill: #003465 } 
		.shp1 { fill: #e72742 } 
	</style>
	<g id="Layer">
		<path id="Layer" class="shp0" d="M1600 546.96L1600 523.91L1533.6 523.91C1520.92 523.91 1510.63 534.16 1510.57 546.82L1510.55 546.96L1510.57 546.95L1510.57 705.83C1510.57 712.18 1508.79 714.37 1502.63 714.37L1493.13 714.37L1493.13 737.42L1508.79 737.42C1533.63 737.42 1533.63 717 1533.63 709.31L1533.61 709.31L1533.61 600.44L1566.06 600.44L1566.06 737.09L1589.13 737.09L1589.13 600.44L1600 600.44L1600 577.4L1533.62 577.4L1533.62 557.35C1533.62 550.8 1537.09 546.95 1542.84 546.95L1600 546.95L1600 546.96Z" />
		<path id="Layer" fill-rule="evenodd" class="shp0" d="M1428.13 557.38L1428.13 577.41L1491.48 577.41L1491.48 658.83L1428.13 658.83L1428.13 709.31C1428.13 717.01 1428.13 737.42 1403.3 737.42L1387.63 737.42L1387.63 714.38L1397.15 714.38C1403.29 714.38 1405.07 712.18 1405.07 705.82L1405.07 546.94L1405.05 546.96L1405.07 546.82C1405.14 534.17 1415.43 523.92 1428.12 523.92L1494.5 523.92L1494.5 546.96L1437.34 546.96C1431.59 546.96 1428.13 550.81 1428.13 557.38ZM1468.56 600.45L1428.13 600.45L1428.13 635.78L1468.56 635.78L1468.56 600.45Z" />
		<path id="Layer" class="shp0" d="M832.39 542.03L819.34 516.83L796.37 516.83L809.38 542.03L713.47 542.03L713.47 564.97L928.73 564.97L928.73 542.03L832.39 542.03Z" />
		<path id="Layer" class="shp0" d="M901.85 631.65L928.73 631.65L928.73 609.2L910.99 609.2C905.3 609.2 900.01 606.5 886.41 592.91L871.86 578.06L840.24 578.06L867.91 605.95L821.1 646.86L774.28 605.95L801.95 578.06L770.34 578.06L755.78 592.91C742.19 606.49 736.9 609.2 731.2 609.2L713.46 609.2L713.46 631.65L740.35 631.65C744.71 631.65 748.88 630.02 756.68 623.17L802.59 663.03L754.63 704.94C747.18 711.35 741.02 714.37 726.26 714.37L713.48 714.37L713.48 737.42C713.09 737.42 733.88 737.41 733.88 737.41C749.42 737.41 753.4 736.92 765.14 727.69L821.1 679.09L877.05 727.69C888.79 736.92 892.77 737.41 908.31 737.41C908.31 737.41 929.11 737.42 928.71 737.42L928.71 714.37L915.93 714.37C901.17 714.37 895.01 711.35 887.56 704.94L839.6 663.03L885.51 623.17C893.31 630.02 897.48 631.65 901.85 631.65Z" />
		<path id="Layer" class="shp0" d="M1144.59 77.62L1144.59 0L945.69 0L918.26 0L867.98 0L867.98 391.24L918.26 391.24L1144.59 391.24L1144.59 313.51L945.69 313.51L945.69 233.84L1134.74 233.84L1134.74 156.15L945.69 156.15L945.69 77.62L1144.59 77.62Z" />
		<path id="Layer" class="shp0" d="M267.32 0L267.32 156.79L77.71 156.79L77.71 0L0 0L0 391.24L77.71 391.24L77.71 234.45L267.32 234.45L267.32 391.24L345.03 391.24L345.03 0L267.32 0Z" />
		<path id="Layer" class="shp0" d="M799.36 391.19L654.43 173.68C660.83 168.14 669.85 160.3 675.1 155.59C743.6 94.08 750.42 22.4 750.8 0.13L675.75 0.13C675.53 10.71 673.01 58.26 625.75 100.69C603.5 120.66 567.15 151.13 537.89 175.37L537.89 1.4L460.47 1.4L460.47 391.24L537.89 391.24L537.89 269.96L538.36 270.54C540.39 268.89 567.04 247.18 597.95 221.46L709.53 391.19L799.36 391.19Z" />
		<path id="Layer" class="shp1" d="M1252.58 -0.22L1252.58 77.38C1317.63 77.54 1370.31 130.29 1370.31 195.34C1370.31 260.39 1317.63 313.12 1252.58 313.28L1252.58 390.79C1360.6 390.79 1448.18 303.26 1448.18 195.3C1448.17 87.31 1360.6 -0.22 1252.58 -0.22Z" />
		<path id="Layer" class="shp0" d="M1600 -0.22L1600 77.38C1534.95 77.54 1482.26 130.29 1482.26 195.34C1482.26 260.39 1534.94 313.12 1600 313.28L1600 390.79C1491.97 390.79 1404.4 303.26 1404.4 195.3C1404.4 87.31 1491.97 -0.22 1600 -0.22Z" />
		<path id="Layer" fill-rule="evenodd" class="shp0" d="M1264.41 625.66L1134.76 625.66C1132.25 630.15 1127.04 639.14 1124.53 643.46L1264.41 643.46L1264.41 709.31C1264.41 717.01 1264.41 737.42 1239.57 737.42L1212.56 737.42L1212.56 714.45L1229.75 714.45C1237.96 714.45 1241.35 710.65 1241.35 703.06L1241.35 666.46L1218.1 666.46C1217.63 667.39 1191.66 713.58 1190.34 715.56C1181.74 728.33 1173.95 737.39 1151.9 737.39L1131.96 737.39L1131.96 714.47L1151.9 714.47C1163.45 714.47 1164.94 712.22 1171.32 702.76C1172.09 701.62 1188.73 673 1192.19 666.46L1149.32 666.46C1148.84 667.36 1122.87 713.58 1121.56 715.56C1112.95 728.33 1105.17 737.39 1083.12 737.39L1063.18 737.39L1063.18 714.47L1083.12 714.47C1094.66 714.47 1096.16 712.22 1102.52 702.76C1103.3 701.62 1119.93 673 1123.4 666.46L1109.69 666.46C1102.66 675.07 1094.14 680.68 1076.8 680.68L1056.86 680.68L1056.86 657.76L1076.8 657.76C1088.34 657.76 1089.86 655.51 1096.21 646.05C1096.97 644.9 1107.66 626.93 1108.41 625.66L1074.25 625.66L1074.25 523.93L1238.8 523.93C1263.64 523.93 1264.41 544.36 1264.41 552.04L1264.41 625.66ZM1097.22 546.99L1097.22 565.22L1241.47 565.22L1241.47 556.62C1241.47 550.94 1238.54 546.99 1230.4 546.99L1097.22 546.99ZM1097.22 603.16L1241.47 603.16L1241.47 585.01L1097.22 585.01L1097.22 603.16Z" />
		<path id="Layer" class="shp0" d="M397.46 709.32L397.46 646.04L374.39 646.04L374.39 707.97C374.39 713.05 371.14 714.38 366.52 714.38L356.95 714.38L356.95 737.42L372.63 737.42C397.47 737.42 397.47 717.01 397.47 709.32L397.46 709.32Z" />
		<path id="Layer" class="shp0" d="M359.1 580.86L372.14 615.76L374.49 622.06L397.51 622.06L382.07 580.86L359.1 580.86Z" />
		<path id="Layer" class="shp0" d="M359.1 526.63L372.14 561.53L374.49 567.83L397.51 567.83L382.07 526.63L359.1 526.63Z" />
		<path id="Layer" fill-rule="evenodd" class="shp0" d="M517.77 694.1L454.21 694.1L454.21 710.31C454.21 714.37 457.52 714.37 458.78 714.37L535.01 714.37C540.55 714.37 543.55 711.66 543.55 705.93L543.55 695.74L566.6 695.74L566.6 712.6C566.6 737.42 546.18 737.42 538.48 737.42L455.99 737.42C431.15 737.42 431.15 717 431.15 709.32L431.15 644.51C427.72 645.53 424.2 646.03 420.37 646.03L404.89 646.03L404.89 622.05L420.37 622.05C424.03 622.05 427.82 622.02 440.23 608.78L443.15 605.48L413.52 605.48L413.52 582.43L442.27 582.43L442.27 564.97L413.52 564.97L413.52 542.03L442.27 542.03L442.27 516.83L464.31 516.83L464.31 542.03L514.86 542.03L514.86 516.83L537.93 516.83L537.93 542.03L566.6 542.03L566.6 564.97L537.93 564.97L537.93 582.43L566.6 582.43L566.6 605.48L536.97 605.48L539.9 608.78C550.75 620.36 555.02 621.83 558.35 622.02C558.83 622.05 575.25 622.05 575.25 622.05L575.25 646.03L559.74 646.03C554.81 646.03 550.37 645.24 545.97 643.48L545.97 668.87C545.97 670.53 545.85 672.04 545.67 673.49C545.65 673.69 545.62 673.89 545.59 674.09C545.47 674.95 545.33 675.78 545.16 676.56C545 677.3 544.83 678 544.63 678.67C544.6 678.77 544.57 678.86 544.54 678.94C539.9 694.04 524.3 694.1 517.77 694.1ZM522.84 662.6L522.84 653.14L454.21 653.14L454.21 671.06L514.33 671.06C519.85 671.06 522.84 668.34 522.84 662.6L522.84 662.6ZM464.31 564.97L464.31 582.43L514.86 582.43L514.86 564.97L464.31 564.97ZM452.65 630.28L527.48 630.28C525.29 628.18 506.33 607.75 504.15 605.41L475.98 605.48C473.81 607.82 454.84 628.17 452.65 630.28Z" />
		<path id="Layer" fill-rule="evenodd" class="shp0" d="M195 607.84L214.94 607.84L214.94 631.83L195 631.83C182.09 631.83 172.53 627.65 157.16 615.26C149.43 609.04 135.57 597.85 126.59 590.58L118.95 590.58L118.95 638.64L189.65 638.64L189.65 737.42L49.87 737.42C25.03 737.42 25.03 717.24 25.03 709.56L25.03 638.64L95.99 638.64L95.99 590.58L88.36 590.58C79.37 597.84 65.51 609.03 57.78 615.26C42.39 627.65 32.85 631.83 19.94 631.83L0 631.83L0 607.84L19.94 607.84C25.27 607.84 29.72 607.06 42.72 596.58C44.82 594.9 47.38 592.84 50.18 590.58L0 590.58L0 567.61L95.98 567.61L95.98 553.9C88.39 554.6 79.12 555.23 69.91 555.23L25.03 555.23L25.03 532.44L69.92 532.44C89.08 532.44 109.36 529.39 109.56 529.36L189.51 516.91L189.51 539.98L118.95 550.97L118.95 567.62L214.94 567.62L214.94 590.58L164.76 590.58C167.55 592.84 170.11 594.9 172.22 596.59C185.22 607.06 189.67 607.85 195 607.85L195 607.84ZM166.98 714.38L166.98 698.11L48.1 698.11L48.1 704.7C48.1 711.05 50.27 714.38 55.87 714.38L166.98 714.38ZM166.98 678.32L166.98 661.84L48.09 661.84L48.09 678.32L166.98 678.32Z" />
	</g>
</svg>